<?xml version="1.0" encoding="UTF-8" standalone="no"?>
<!-- Created with Inkscape (http://www.inkscape.org/) -->

<svg
   xmlns:dc="http://purl.org/dc/elements/1.1/"
   xmlns:cc="http://creativecommons.org/ns#"
   xmlns:rdf="http://www.w3.org/1999/02/22-rdf-syntax-ns#"
   xmlns:svg="http://www.w3.org/2000/svg"
   xmlns="http://www.w3.org/2000/svg"
   xmlns:sodipodi="http://sodipodi.sourceforge.net/DTD/sodipodi-0.dtd"
   xmlns:inkscape="http://www.inkscape.org/namespaces/inkscape"
   width="1000"
   height="1000"
   viewBox="0 0 264.58333 264.58333"
   version="1.1"
   id="svg4575"
   inkscape:version="0.92.2 (5c3e80d, 2017-08-06)"
   sodipodi:docname="algorithm_input_v1.svg">
  <defs
     id="defs4569" />
  <sodipodi:namedview
     id="base"
     pagecolor="#ffffff"
     bordercolor="#666666"
     borderopacity="1.0"
     inkscape:pageopacity="0.0"
     inkscape:pageshadow="2"
     inkscape:zoom="0.35"
     inkscape:cx="400"
     inkscape:cy="560"
     inkscape:document-units="mm"
     inkscape:current-layer="layer1"
     showgrid="false"
     inkscape:window-width="3840"
     inkscape:window-height="2066"
     inkscape:window-x="-11"
     inkscape:window-y="-11"
     inkscape:window-maximized="1" />
  <metadata
     id="metadata4572">
    <rdf:RDF>
      <cc:Work
         rdf:about="">
        <dc:format>image/svg+xml</dc:format>
        <dc:type
           rdf:resource="http://purl.org/dc/dcmitype/StillImage" />
        <dc:title></dc:title>
      </cc:Work>
    </rdf:RDF>
  </metadata>
  <g
     inkscape:label="Layer 1"
     inkscape:groupmode="layer"
     id="layer1"
     transform="translate(0,-32.416667)">
    <path
       inkscape:connector-curvature="0"
       style="fill:none;stroke:#008000;stroke-width:1.85872889;stroke-miterlimit:10"
       stroke-miterlimit="10"
       d="m 111.4374,207.71698 c -0.27891,1.67286 0.46466,3.34572 0.37171,5.01859 -0.18589,4.92563 -0.8364,9.85125 -0.18589,14.7769 0.5576,4.08916 1.95165,7.99251 2.5093,12.08174 1.20817,8.55015 -1.30112,17.19324 -3.99627,25.37164 -0.65057,1.85872 -1.30113,3.81041 -2.50927,5.29738 -2.41637,2.88103 -6.59853,3.62452 -10.315949,4.18213 -9.944223,1.39405 -19.888405,2.88104 -29.739663,4.2751 -2.602229,0.37173 -5.390319,0.74346 -7.806666,-0.37178 -3.903339,-1.85873 -5.111508,-6.87726 -5.855003,-11.15237 -1.208171,-7.06315 -2.416345,-14.3122 -2.137537,-21.4683 0.464684,-12.54643 5.390314,-24.72111 5.297378,-37.2675 -0.09295,-6.22676 -1.394047,-12.4535 -1.208177,-18.77318 0.185892,-6.22674 2.13756,-12.91815 7.156122,-16.63564 1.115233,-0.8364 2.323387,-1.48698 3.438639,-2.32341 1.394047,-1.20814 2.323404,-2.78811 3.717451,-3.90335 2.137534,-1.76575 5.018558,-2.4163 7.34197,-3.90332 3.252794,-2.13754 5.018605,-5.85498 7.341995,-8.92188 1.765793,-2.41633 3.810404,-4.55388 5.947956,-6.69144 4.925599,-5.01857 9.851234,-10.13003 14.776834,-15.14859 2.13757,-2.2305 4.55392,-4.55393 7.62082,-5.11152 1.8587,-0.37178 3.71747,0 5.5762,0.37175 3.43862,0.65054 6.97022,1.39406 10.31591,2.60221 3.53161,1.30113 7.06317,3.3457 10.87361,3.43863 5.01856,0.18592 10.59474,-2.97395 14.86981,-0.27888 0.92936,0.55761 1.67285,1.39405 2.41634,2.23045 0.92937,0.92939 1.85872,1.9517 2.69516,2.88103 3.53158,3.8104 7.34199,8.17841 7.06315,13.38288 -0.27889,4.92559 -4.18211,8.73599 -8.08543,11.70998 -4.73978,3.62454 -9.85129,6.69141 -15.2416,9.10778 -10.13007,4.46095 -21.93303,6.97019 -28.90323,15.61333 z"
       id="path27" />
    <path
       style="fill:none;stroke:#808080;stroke-width:0.96827519px;stroke-linecap:butt;stroke-linejoin:round;stroke-opacity:1"
       d="m 140.27523,15.462798 c -5.63319,3.079551 -10.21215,-0.770258 -15.34091,-0.847237 -8.38439,-0.125868 -16.77272,0 -25.159112,0 -7.772703,0 -15.545461,0 -23.318183,0 -3.272726,0 -6.545451,0 -9.818197,0 -1.022713,0 -2.04545,0 -3.068176,0 -0.409089,0 -0.844222,-0.0992 -1.22727,0 -2.917176,0.755205 -5.73659,1.679614 -8.590915,2.541677 -0.419012,0.126433 -0.846703,0.248417 -1.227277,0.423618 -0.24066,0.110631 -0.372937,0.312834 -0.613633,0.42361 -0.38056,0.175201 -0.861377,0.234114 -1.227272,0.423578 -0.462832,0.239602 -0.800795,0.577368 -1.227274,0.84726 -2.028557,1.283667 -4.114276,2.523973 -6.136367,3.812498 -0.637681,0.406309 -1.359535,0.772336 -1.84091,1.27083 -1.576259,1.632183 -2.833449,3.401186 -4.295453,5.083297 -0.379462,0.436567 -0.798615,0.856592 -1.22728,1.270845 -0.594449,0.574524 -1.339506,1.079112 -1.840908,1.694441 -1.345407,1.651166 -2.320282,3.438519 -3.68182,5.083327 -0.28705,0.346769 -1.061028,0.464685 -1.227272,0.847231 -0.473866,1.090407 -0.464336,2.255143 -0.613639,3.388887 -0.05557,0.421876 0.176325,0.86511 0,1.270844 -0.447623,1.030006 -1.144252,2.003401 -1.840914,2.965257 -0.129361,0.178423 -0.556901,0.22774 -0.613632,0.423617 -0.160461,0.553863 0.07409,1.131946 0,1.694424 -0.130946,0.994387 -0.469717,1.971804 -0.613638,2.96527 -0.06104,0.421531 0.08674,0.851492 0,1.270847 -0.119278,0.57637 -0.423988,1.127161 -0.613633,1.694447 -0.424034,1.268495 -0.889926,2.531676 -1.227271,3.812508 -0.07315,0.277918 0.03389,0.565781 0,0.847211 -0.170732,1.414177 -0.301057,2.833543 -0.613641,4.236125 -0.09835,0.441338 -0.435928,0.841466 -0.613642,1.270837 -0.613632,1.553221 -1.227267,3.106474 -1.840905,4.65971 0,0.282472 0.105404,0.574347 0,0.847229 -0.716853,1.855725 -1.851023,3.632084 -2.454547,5.506947 -0.221873,0.689158 0.112926,1.416336 0,2.118016 -0.09315,0.578633 -0.504557,1.117146 -0.613638,1.694457 -4.085929,21.624854 -0.234756,0.73679 -1.227275,11.013875 -0.109723,1.135896 -0.496139,2.253359 -0.613631,3.388892 -0.131173,1.267593 0,2.541664 0,3.812504 0,3.812493 0,7.624973 0,11.437483 0,10.59027 0,21.18053 0,31.77081 0,3.53006 0,7.06019 0,10.59027 0,0.84722 0,1.69443 0,2.54166 0,0.56481 0.09034,1.13307 0,1.69444 -0.246839,1.53351 -0.589973,2.06906 -1.227278,3.38889 -0.20454,0.42359 -0.358843,0.86041 -0.613634,1.27082 -0.360343,0.58045 -0.866934,1.11403 -1.227273,1.69443 -0.254812,0.41044 -0.409102,0.84724 -0.613641,1.27084 -0.20454,0.84725 -0.166976,1.74001 -0.613639,2.54168 -0.591985,1.06253 -1.7170417,1.94705 -2.454546,2.96529 -0.8076807,1.1151 -0.6136363,1.35325 -0.6136363,2.54166 0,0.14107 0.049607,0.28673 0,0.42357 -0.156887,0.43323 -0.5221577,0.82884 -0.6136317,1.27086 -0.1655256,0.7999 0,2.08388 0,2.96527 0,2.11806 0,4.23613 0,6.35416 0,1.55325 0,3.10647 0,4.65971 0,0.56484 0,1.12963 0,1.69446 0,0.28246 -0.129361,0.5793 0,0.84722 0.2892525,0.5991 0.9582522,1.0909 1.227268,1.69445 0.5545921,1.24423 0.7092035,2.56076 1.227276,3.8125 0.01448,0.0352 1.732121,2.86318 1.840909,3.38889 0.115714,0.55912 -0.21081,1.14868 0,1.69444 0.616883,1.59692 1.697455,3.09177 2.454548,4.65971 0.498843,1.03309 0.90304,2.80528 1.227278,3.8125 0.505918,1.57163 1.423712,3.07572 1.840906,4.65973 0.146369,0.55568 0,1.12962 0,1.69443 0.613638,2.54167 0.992754,5.11564 1.840909,7.62501 0.587918,1.73936 1.893279,3.33974 2.454549,5.08333 0.266206,0.827 -0.19141,1.70481 0,2.54167 1.089995,4.76552 1.862183,4.36826 2.454545,8.04859 0.119304,0.7413 -0.159097,2.30631 0,2.96528 0.07522,0.3114 0.502709,0.54091 0.613641,0.8472 0.248024,0.68494 -0.200583,1.42576 0,2.11806 0.08969,0.30962 0.531817,0.5366 0.613633,0.84724 0.33136,1.25799 0.189411,2.5678 0.613638,3.8125 0.400295,1.17436 1.381077,2.22492 1.840911,3.38889 0.161452,0.40869 0,0.84718 0,1.27083 0.409102,0.84718 0.717674,1.7208 1.227274,2.54162 0.11398,0.18359 0.522159,0.23417 0.613638,0.42361 0.533387,1.10467 0.783461,2.26555 1.227274,3.38891 0.170199,0.43076 0.427775,0.84315 0.613635,1.27083 0.427906,0.98466 0.704409,2.00276 1.227272,2.96527 1.092488,2.01115 4.665467,7.15515 6.136368,8.89585 0.291497,0.34498 0.929616,0.50474 1.227274,0.84722 0.332812,0.38288 0.324357,0.87144 0.613634,1.27083 0.129386,0.17844 0.409102,0.28245 0.613638,0.42361 0.204542,0.28245 0.44377,0.55407 0.61364,0.84719 0.240214,0.41459 0.22551,0.91364 0.613638,1.27086 0.274396,0.25267 0.903847,0.20039 1.22727,0.42358 0.723182,0.49928 1.202019,1.14315 1.840905,1.69446 0.180721,0.156 0.409107,0.28249 0.613638,0.42359 0.818186,0.56484 1.565653,1.1831 2.45455,1.69446 0.351362,0.20219 0.855088,0.24019 1.227276,0.42364 1.065772,0.52549 2.002405,1.16889 3.068177,1.69442 0.372192,0.18357 0.846716,0.24842 1.227282,0.42361 0.850956,0.39164 1.587274,0.89667 2.454545,1.27083 0.775703,0.33468 1.69343,0.49695 2.454541,0.84721 2.263326,1.04165 0.146403,0.69145 2.454555,1.27086 1.823659,0.45779 3.695279,0.82029 5.522716,1.2708 3.379367,0.83316 6.188172,1.95207 9.818191,2.54168 1.194658,0.194 2.456428,-0.047 3.68182,0 2.459275,0.0943 4.917458,0.225 7.36365,0.42364 1.035828,0.0841 2.045456,0.28244 3.068183,0.42361 2.045437,0.28248 4.071339,0.64354 6.136379,0.84719 0.809935,0.08 1.636349,0 2.454518,0 1.431812,0 2.863632,0 4.295472,0 4.5,0 8.99998,0 13.50001,0 7.36363,0 14.72724,0 22.09089,0 2.45453,0 4.90912,0 7.36368,0 0.61362,0 1.22725,0 1.84089,0 0.61361,0 1.2419,0.0919 1.84093,0 1.26283,-0.19366 2.45451,-0.56481 3.6818,-0.84719 0.61362,-0.14108 1.23527,-0.26698 1.8409,-0.42361 1.0314,-0.26698 2.00547,-0.64715 3.0682,-0.84725 1.20032,-0.22587 2.50144,-0.15194 3.68182,-0.4236 1.3017,-0.29947 2.38007,-0.97131 3.68179,-1.27083 0.58218,-0.13408 1.23345,0.06 1.84092,0 0.83491,-0.0825 1.64846,-0.25237 2.45454,-0.42364 1.85469,-0.39393 3.69907,-0.81301 5.52272,-1.2708 0.42989,-0.10793 0.77877,-0.36172 1.22729,-0.42361 0.60174,-0.0829 1.27692,0.16699 1.8409,0 0.94007,-0.27821 1.52594,-0.97497 2.45457,-1.27085 1.76185,-0.56136 3.78707,-0.67174 5.52273,-1.27082 0.40915,-0.14106 0.23308,-0.6721 0.61362,-0.84723 0.9165,-0.4218 2.12365,-0.456 3.06819,-0.84723 7.84451,-3.24918 0.93917,-0.41167 3.68183,-2.54168 1.34523,-1.04472 2.93335,-1.93093 4.29547,-2.96524 0.68794,-0.52239 1.20199,-1.14316 1.84088,-1.69444 0.18082,-0.15597 0.45315,-0.25753 0.61363,-0.42361 0.25384,-0.26271 0.3392,-0.59465 0.61362,-0.84722 0.34707,-0.31952 0.90639,-0.51493 1.22729,-0.84722 0.11371,-0.11723 -0.0916,-0.29737 0,-0.42361 0.94181,-1.3003 1.98472,-2.56591 3.0682,-3.81252 0.75888,-0.87315 1.79492,-1.63092 2.45449,-2.54165 0.37708,-0.52075 0.2039,-1.18553 0.61369,-1.69444 0.63606,-0.79035 1.69327,-1.38235 2.45456,-2.11807 0.80839,-0.78129 1.55449,-2.99339 1.8409,-3.38888 0.0916,-0.12619 0.50381,0.11918 0.61363,0 1.376,-1.49266 2.38236,-3.13474 3.68181,-4.65969 0.74785,-0.87769 1.69569,-1.66856 2.45454,-2.54168 1.37944,-1.58717 2.15967,-3.35862 3.06819,-5.08332 0.59727,-1.13383 1.33875,-2.23334 1.84094,-3.38891 0.1174,-0.27062 -0.0988,-0.57328 0,-0.84721 0.31357,-0.8664 0.94661,-1.66989 1.22729,-2.54167 0.13273,-0.41353 -0.17617,-0.86512 0,-1.27084 2.3638,-5.43942 1.55853,-0.55895 2.45449,-5.50696 0.0511,-0.28033 0,-0.56479 0,-0.8472 0,-0.70602 0,-1.41204 0,-2.11805 0,-0.98841 0,-1.97682 0,-2.9653 0,-3.67129 0,-7.34256 0,-11.01387 0,-2.54166 0,-5.08332 0,-7.625 0,-0.8472 0,-1.69441 0,-2.54165 0,-0.28248 -0.0988,-0.57324 0,-0.84721 0.11067,-0.30632 0.469,-0.54769 0.61368,-0.84721 0.0651,-0.13407 0,-0.28249 0,-0.42363 0.40917,-0.56483 0.88755,-1.10814 1.22726,-1.69446 0.0762,-0.13103 -0.0354,-0.2843 0,-0.42358 0.17138,-0.71024 0.36073,-1.41957 0.61362,-2.11808 0.78169,-2.15837 0.47129,-0.5693 2.45457,-2.96526 1.87097,-0.29983 0.23642,-1.17371 0.61358,-1.69445 0.56543,-0.78056 2.54829,-3.19275 3.68183,-4.23609 0.17351,-0.15959 0.44547,-0.26118 0.61367,-0.42362 2.17076,-0.65449 1.96165,-2.2976 3.06816,-3.38889 1.17302,-1.15681 2.58365,-2.19762 3.68183,-3.38891 0.3471,-0.37669 0.3242,-0.87143 0.61365,-1.27083 0.32992,-0.45536 0.89747,-0.81545 1.22728,-1.27082 0.28942,-0.39939 0.32416,-0.87145 0.61364,-1.27083 0.32994,-0.45538 0.89745,-0.81548 1.22727,-1.27085 0.18276,-0.25265 -0.12954,-0.57929 0,-0.84719 1.32773,-2.74969 -0.25933,1.74884 1.84091,-2.11805 2.48059,-4.56646 -0.087,-0.54635 0.61358,-2.96527 0.12693,-0.43788 0.40923,-0.84723 0.61368,-1.27085 0.20431,-0.42364 0.35103,-0.86279 0.61362,-1.27083 0.5573,-0.8656 1.35915,-1.65474 1.84093,-2.54165 0.14356,-0.26456 -0.0672,-0.5687 0,-0.84723 0.13893,-0.5743 0.43076,-1.12613 0.61364,-1.69445 0.22648,-0.70285 0.38761,-1.41521 0.61361,-2.11806 0.18301,-0.56833 0.49437,-1.11811 0.61363,-1.69446 0.0869,-0.41932 0,-0.8472 0,-1.27081 0,-0.14107 -0.0647,-0.2898 0,-0.42362 0.14442,-0.29949 0.46906,-0.54771 0.61366,-0.84723 0.0649,-0.13407 0,-0.28247 0,-0.42359 0.20435,-0.56483 0.30038,-1.15388 0.61363,-1.69447 0.10787,-0.18547 0.4843,-0.24506 0.61364,-0.42362 0.20436,-0.42358 0.40922,-0.84719 0.61368,-1.2708 0,-0.14108 -0.0649,-0.28977 0,-0.42361 0.14441,-0.29948 0.46898,-0.54767 0.61358,-0.84723 0.065,-0.1341 -0.0497,-0.28675 0,-0.4236 0.15671,-0.4332 0.4568,-0.83766 0.61368,-1.27083 0.14442,-0.39867 -0.14443,-0.87216 0,-1.27083 0.11079,-0.30631 0.44373,-0.55406 0.61362,-0.84722 1.18191,-2.03976 0.0635,-0.55521 1.2273,-2.96527 0.14441,-0.29951 0.50269,-0.5409 0.61358,-0.84722 0.0989,-0.27395 -0.099,-0.57326 0,-0.84723 0.11066,-0.30633 0.5027,-0.54091 0.61366,-0.84723 0.0988,-0.27394 -0.0803,-0.57029 0,-0.84725 0.12693,-0.4378 0.45673,-0.83761 0.61365,-1.27079 0.0498,-0.13712 -0.0916,-0.29737 0,-0.42361 0.12939,-0.17844 0.54351,-0.22987 0.61361,-0.42362 0.1489,-0.41094 0,-0.84723 0,-1.27083 0,-0.98843 0,-1.97685 0,-2.96528 0,-0.28246 0,-0.56483 0,-0.84724 0,-0.28247 -0.0988,-0.5732 0,-0.8472 0.11067,-0.30634 0.469,-0.54771 0.61366,-0.84724 0.11815,-0.24536 0,-1.32734 0,-1.69444 0,-1.55324 0,-3.10644 0,-4.6597 0,-2.96529 0,-5.93056 0,-8.89583 0,-3.24767 0,-6.49537 0,-9.74306 0,-0.84719 0,-1.69443 0,-2.54166 0,-0.42362 0.0869,-0.85149 0,-1.27082 -0.11957,-0.57635 -0.49437,-1.11809 -0.61366,-1.69447 -0.087,-0.41932 0.12033,-0.85543 0,-1.27082 -0.0898,-0.30958 -0.50269,-0.54089 -0.61361,-0.84722 -0.24055,-0.66449 0.24054,-1.45357 0,-2.11803 -0.0703,-0.193685 -0.54349,-0.229872 -0.61365,-0.42365 -0.14889,-0.410948 0,-0.84722 0,-1.270802 0,-0.282483 0,-0.564794 0,-0.84722 0,-1.129628 0,-2.259275 0,-3.388931 0,-0.282454 0,-0.564766 0,-0.847184 0,-0.282493 0.22674,-0.612248 0,-0.847221 -0.25379,-0.262703 -0.97353,-0.160907 -1.22724,-0.42361 -1.2273,-1.270841 0.61358,-0.42362 0,-1.270841 -0.12928,-0.178432 -0.5222,-0.234132 -0.61365,-0.423591 -0.12966,-0.267882 0,-0.564823 0,-0.847238 0,-0.423617 0,-0.84722 0,-1.270837 0,-0.141059 0.0916,-0.297371 0,-0.423617 -0.12966,-0.178435 -0.48424,-0.245081 -0.61365,-0.423604 -0.11308,-0.156335 0,-2.172685 0,-2.541659 0,-0.141074 0.14443,-0.323769 0,-0.42361 -0.32329,-0.223205 -0.97356,-0.160921 -1.2273,-0.423602 -0.22673,-0.235042 0.0989,-0.57325 0,-0.847237 -0.11091,-0.306324 -0.46902,-0.547697 -0.61358,-0.847219 -0.12928,-0.267877 0.18299,-0.594637 0,-0.847212 -0.12928,-0.178432 -0.54348,-0.229885 -0.61368,-0.423618 -0.14888,-0.410968 0,-0.847222 0,-1.270839 0,-0.141067 0.065,-0.289764 0,-0.423625 -0.14441,-0.299482 -0.35983,-0.584485 -0.61364,-0.847204 -0.16039,-0.166057 -0.5435,-0.229878 -0.61363,-0.42362 -0.14891,-0.410934 0.1489,-0.859856 0,-1.270796 -0.0699,-0.193688 -0.54344,-0.229875 -0.61366,-0.423618 -0.14891,-0.410969 0.1489,-0.859906 0,-1.270822 -0.0699,-0.193705 -0.40916,-0.282497 -0.61363,-0.423652 -0.40916,-0.282463 -0.96854,-0.489976 -1.22725,-0.847187 -1.18964,-1.642498 -0.0353,-2.589301 -1.22728,-4.236108 -0.20652,-0.285212 -1.68782,-1.589692 -1.84095,-2.118041 -0.12007,-0.415415 0.21535,-0.874201 0,-1.270857 -0.41886,-0.770931 -1.26163,-1.398324 -1.84085,-2.118041 -0.89101,-1.107175 -1.88567,-2.634273 -2.45455,-3.812505 -0.26651,-0.552341 -0.4092,-1.129651 -0.61364,-1.694457 -0.81819,-1.270837 -1.74719,-2.510338 -2.45454,-3.812507 -0.52288,-0.962498 -0.79939,-1.980618 -1.2273,-2.965277 -0.18587,-0.427657 -0.3242,-0.871427 -0.61361,-1.27079 -0.32992,-0.455408 -1.02469,-0.781336 -1.22733,-1.27084 -0.22452,-0.543087 0.13442,-1.137322 0,-1.694446 -0.0753,-0.311467 -0.40914,-0.564846 -0.61357,-0.84722 -0.20435,-0.282479 -0.37837,-0.576483 -0.61366,-0.847244 -0.52517,-0.604202 -1.4902,-1.391825 -1.84094,-2.118045 -0.065,-0.134071 0.0273,-0.283379 0,-0.423609 -0.17925,-0.990752 -0.23308,-2.002012 -0.61363,-2.965268 -0.24055,-0.609256 -0.86692,-1.114034 -1.22727,-1.694457 -0.25487,-0.41042 -0.25487,-0.899302 -0.61365,-1.27084 -0.11371,-0.117293 -0.46895,0.09983 -0.61357,0 -0.0952,-0.06568 0.0798,-1.105984 0,-1.270829 -1.48164,-3.068408 0.17705,0.66787 -1.22729,-1.270821 -0.0916,-0.126271 0.0649,-0.289797 0,-0.423628 -0.14443,-0.299512 -0.469,-0.547681 -0.61363,-0.84722 -0.26648,-0.552322 -0.17992,-1.195204 -0.61363,-1.694449 -0.23532,-0.270624 -0.9039,-0.200364 -1.22731,-0.423601 -0.14443,-0.09981 0.0651,-0.289754 0,-0.42361 -0.14443,-0.29949 -0.469,-0.547689 -0.61362,-0.847212 -0.26649,-0.552339 -0.30042,-1.153897 -0.61369,-1.694455 -0.10737,-0.185484 -0.40918,-0.28248 -0.61357,-0.423618 -0.40919,-0.282471 -0.88019,-0.527714 -1.22729,-0.84722 -1.16252,0.04835 -0.40916,-0.988416 -0.61362,-1.270839 -0.32992,-0.455351 -0.84785,-0.834238 -1.22726,-1.270821 -0.23532,-0.270602 -0.29029,-0.623945 -0.61367,-0.847205 -0.14442,-0.0998 -0.46904,0.09982 -0.61362,0 -0.2894,-0.199786 0.22672,-0.612235 0,-0.847212 -0.3211,-0.332326 -0.81819,-0.564829 -1.22729,-0.847252 -0.20434,-0.141115 -0.48432,-0.245073 -0.61365,-0.423578 -0.0916,-0.126271 0.0916,-0.297386 0,-0.423625 -0.12928,-0.178425 -0.40921,-0.282488 -0.61361,-0.423643 -0.40918,-0.282455 -0.81819,-0.564773 -1.22728,-0.84718 -0.61364,-0.423642 -1.16329,-0.896608 -1.84093,-1.270846 -0.35719,-0.197336 -0.84672,-0.248409 -1.22726,-0.423634 -0.24083,-0.110631 -0.38231,-0.303761 -0.61365,-0.423578 -0.59,-0.305501 -1.2509,-0.541743 -1.84092,-0.847228 -0.68723,-0.355833 -1.15362,-0.914997 -1.84089,-1.270838 -0.36606,-0.189488 -0.90383,-0.20039 -1.22729,-0.423602 -0.3233,-0.223187 -0.29025,-0.623969 -0.61362,-0.847237 -0.0398,-0.02748 -2.34024,-0.794617 -2.45456,-0.847212 -0.55863,-0.257241 -1.29701,-1.083107 -1.84089,-1.27083 -0.18275,-0.06317 -0.43074,0.06326 -0.61366,0 -0.25847,-0.08932 -0.33912,-0.360475 -0.61364,-0.423618 -0.003,-6.58e-4 -1.84028,4.05e-4 -1.84093,0 -0.14441,-0.09982 0.18303,-0.360458 0,-0.423602 -0.36599,-0.126264 -0.86133,0.126255 -1.22725,0 -0.51746,-0.178441 -0.73118,-0.641761 -1.22724,-0.847237 -0.43429,-1.29162 -1.70023,-0.163395 -2.45458,-0.423601 -0.25846,-0.08932 -0.33301,-0.375189 -0.6136,-0.4236109 -0.56026,-0.096786 -3.38862,0 -4.29545,0 -0.4092,0 -0.86139,0.1262559 -1.22728,0 -0.51751,-0.1784398 -0.7459,-0.625684 -1.2273,-0.8472111 -0.16978,-0.078404 -0.40919,0 -0.61367,0 -0.603,0 -3.51943,0.056006 -3.68179,0 -0.1828,-0.063258 0.18301,-0.360483 0,-0.4236266 -0.36604,-0.1262632 -0.81819,0 -1.22725,0 -1.22728,0 -2.45452,0 -3.6818,0 -4.09093,0 -8.18185,0 -12.27277,0 -4.29541,0 -8.59089,0 -12.88642,0 -1.22721,0 -2.45449,0 -3.68177,0 -0.61362,0 -1.25875,-0.1338867 -1.84091,0 -0.27446,0.063258 -0.37307,0.3128502 -0.61362,0.4236266 -0.38053,0.1751919 -0.79336,0.3237608 -1.22729,0.4235932 -0.54454,0.1253048 -2.66633,-0.1386407 -3.06817,0 -2.55382,0.8815078 0.65602,-0.030463 -0.61363,0.8472288 -0.14444,0.09981 -0.40925,0 -0.61362,0 -0.40918,0 -0.8614,-0.126247 -1.22731,0 -0.183,0.06317 0.18298,0.360474 0,0.423601 -0.36604,0.126264 -0.83917,-0.08933 -1.22725,0 -0.54888,0.126264 -0.70984,0.668627 -1.22728,0.847237 -0.18301,0.06317 -0.46896,-0.09982 -0.61365,0 -1.26966,0.876463 1.9402,-0.03432 -0.61366,0.84722 -0.18279,0.06326 -0.46894,-0.09982 -0.61362,0 -1.26963,0.876463 1.94018,-0.03432 -0.61364,0.847203 -0.36686,0.12645 -1.22727,-0.27882 -1.22727,0.423627 0,0.582187 0.40923,1.129628 0.61365,1.694449 z"
       id="path44"
       inkscape:connector-curvature="0" />
    <rect
       x="59.154167"
       y="5.2412553"
       class="st4"
       width="97.089622"
       height="14.341374"
       id="rect29"
       style="stroke:#000000;stroke-width:1.55651653;stroke-miterlimit:10" />
  </g>
</svg>
